<svg width="18" height="20" viewBox="0 0 18 20" fill="none" xmlns="http://www.w3.org/2000/svg">
<path d="M7.54187 2.65748C6.17301 2.65748 4.86022 3.24776 3.89229 4.29845C2.92436 5.34914 2.38058 6.77419 2.38058 8.26009C2.38058 9.746 2.92436 11.171 3.89229 12.2217C4.86022 13.2724 6.17301 13.8627 7.54187 13.8627C8.91073 13.8627 10.2235 13.2724 11.1914 12.2217C12.1594 11.171 12.7032 9.746 12.7032 8.26009C12.7032 6.77419 12.1594 5.34914 11.1914 4.29845C10.2235 3.24776 8.91073 2.65748 7.54187 2.65748ZM0.660156 8.26009C0.660313 7.07127 0.921849 5.89966 1.42303 4.84263C1.92421 3.7856 2.65056 2.87368 3.54171 2.18265C4.43286 1.49162 5.46307 1.04144 6.54674 0.869533C7.6304 0.697623 8.73621 0.808945 9.77227 1.19425C10.8083 1.57955 11.7447 2.2277 12.5036 3.08484C13.2625 3.94198 13.8219 4.98334 14.1355 6.1224C14.4491 7.26145 14.5076 8.46528 14.3064 9.63386C14.1052 10.8024 13.6499 11.902 12.9784 12.8412L17.6124 17.8714C17.7691 18.0475 17.8558 18.2833 17.8538 18.5282C17.8519 18.773 17.7614 19.0072 17.6019 19.1803C17.4424 19.3535 17.2267 19.4517 17.0011 19.4538C16.7756 19.4559 16.5583 19.3618 16.3961 19.1917L11.7621 14.1615C10.7448 15.0188 9.5264 15.549 8.24532 15.6919C6.96424 15.8348 5.67193 15.5847 4.51533 14.9698C3.35874 14.355 2.38428 13.4003 1.70276 12.2141C1.02124 11.028 0.660013 9.65804 0.660156 8.26009Z" fill="white"/>
</svg>
